<svg preserveAspectRatio="none" width="100%" height="100%" overflow="visible" style="display: block;" viewBox="0 0 69.5969 20.9666" fill="none" xmlns="http://www.w3.org/2000/svg">
<g id="&#216;&#167;&#217;&#132;&#216;&#173;&#217;&#131;&#217;&#128;&#217;&#128;&#217;&#138;&#217;&#133;">
<path id="Vector" d="M67.7568 14.792V0.111459C67.7568 0.0557445 67.8404 3.23365e-05 67.8961 3.23365e-05H69.3168C69.3725 3.23365e-05 69.4282 0.0278881 69.4282 0.111459C69.6232 2.45143 69.5954 6.37923 69.5954 14.792H67.7568Z" fill="var(--fill-0, #161D55)"/>
<path id="Vector_2" d="M60.1859 14.792C59.7959 14.792 59.7123 12.9813 60.1859 12.9813C62.1358 12.9813 62.7208 12.3406 62.7208 10.1956V0.111459C62.7208 0.0557445 62.8044 3.23365e-05 62.8601 3.23365e-05H64.3365C64.3922 3.23365e-05 64.4479 0.0278888 64.4758 0.0836032C64.6986 1.03073 64.6151 2.535 64.6151 10.1956C64.6151 13.4827 63.3615 14.792 60.1859 14.792Z" fill="var(--fill-0, #161D55)"/>
<path id="Vector_3" d="M49.3044 14.792C49.0258 14.792 49.0537 12.9813 49.3044 12.9813H55.9621C57.8285 12.9813 57.8285 11.5049 56.7978 10.1678C55.5443 8.49636 54.235 8.6635 50.9479 8.91421C50.8643 8.91421 50.8644 8.85849 50.8365 8.80278L50.4186 7.40994C50.3908 7.35423 50.4465 7.29852 50.5301 7.27066C54.7364 6.71352 56.6864 6.74138 58.6364 10.0563C59.2214 11.2542 59.3607 12.0899 58.9985 12.5356C59.3885 12.842 59.6392 12.9534 60.1964 12.9813C60.5306 12.9813 60.5864 14.792 60.1964 14.792C59.1099 14.792 58.3857 14.597 57.8564 14.1791C57.4107 14.5691 56.9093 14.792 56.2964 14.792H49.3044Z" fill="var(--fill-0, #161D55)"/>
<path id="Vector_4" d="M37.8515 14.792C37.3222 14.792 37.2943 12.9813 37.8515 12.9813H41.7236C43.7014 12.9813 44.7321 12.6191 44.7321 11.282C44.7321 8.74705 45.0385 9.30419 39.4393 7.13136C39.1329 6.99208 38.91 6.82493 38.91 6.65779V3.00856C38.91 2.72999 39.1886 2.45142 39.5786 2.36785C40.86 2.06143 43.8685 1.50429 46.5706 1.05858C46.6264 1.05858 46.6821 1.08644 46.6821 1.14215L46.8214 2.56285C46.8214 2.64642 46.7935 2.70213 46.7378 2.70213L40.9436 3.8164C40.8322 3.84426 40.7207 3.92783 40.7207 4.03926V5.68281C40.7207 5.76638 40.7764 5.82209 40.86 5.84995C46.2921 7.88349 46.5428 7.93921 46.5428 10.4185C46.5428 10.6692 46.5428 10.9477 46.5428 11.282C46.5428 12.6191 47.1278 12.9813 49.3006 12.9813C49.8856 12.9813 49.8856 14.792 49.3006 14.792C47.6571 14.792 46.3478 14.5134 45.7907 13.1763C45.2335 14.4298 43.8407 14.792 41.7236 14.792H37.8515Z" fill="var(--fill-0, #161D55)"/>
<path id="Vector_5" d="M29.4999 14.792V12.9813H37.857V14.792H29.4999Z" fill="var(--fill-0, #161D55)"/>
<path id="Vector_6" d="M21.1483 14.792V12.9813H29.5053V14.792H21.1483Z" fill="var(--fill-0, #161D55)"/>
<path id="Vector_7" d="M12.3343 14.792V12.9813C14.5907 12.9813 15.12 11.672 15.12 8.38491C15.12 8.30134 15.1757 8.27349 15.2314 8.27349H16.7635C16.8192 8.27349 16.8749 8.30134 16.8749 8.38491C17.1257 12.3684 18.3514 12.9813 21.137 12.9813V14.792C18.2956 14.792 16.6521 14.1513 16.1785 12.0341C15.7607 14.1513 14.3121 14.792 12.3343 14.792ZM17.1257 18.8869C16.29 18.8869 15.8164 18.5248 15.8164 17.8005C15.8164 17.0762 16.29 16.6862 17.1257 16.6862C17.9614 16.6862 18.3792 17.0762 18.3792 17.8005C18.3792 18.5248 17.9614 18.8869 17.1257 18.8869ZM13.7271 18.8869C12.8914 18.8869 12.4179 18.5248 12.4179 17.8005C12.4179 17.0762 12.8914 16.6862 13.7271 16.6862C14.5628 16.6862 14.9807 17.0762 14.9807 17.8005C14.9807 18.5248 14.5628 18.8869 13.7271 18.8869Z" fill="var(--fill-0, #161D55)"/>
<path id="Vector_8" d="M1.51519 20.9205C1.48734 20.9762 1.40377 20.9762 1.34805 20.9483L0.0666419 20.3912C0.0109283 20.3633 -0.0169284 20.2798 0.0109283 20.1962C0.484493 19.2769 1.23663 17.2434 1.59876 13.817V11.0313C1.59876 8.69134 3.07517 7.04779 5.63799 7.04779C8.31224 7.04779 9.39866 8.35706 9.39866 11.6163C9.42651 12.5356 10.7636 12.9813 12.3236 12.9813C12.6858 12.9813 12.6579 14.792 12.3236 14.792C10.6801 14.792 9.48223 14.6527 9.00866 13.7613C8.61867 14.8477 7.53225 15.2377 6.11156 15.2377C5.30371 15.2377 4.46801 15.0148 3.32588 14.7084C2.7966 18.1626 2.04447 20.1405 1.51519 20.9205ZM6.02799 13.427C7.17012 13.427 7.58797 12.9256 7.58797 11.4213C7.58797 9.58276 7.00298 8.85848 5.58228 8.85848C4.2173 8.85848 3.40945 9.77776 3.40945 11.0313V13.037C4.57944 13.3434 5.33157 13.427 6.02799 13.427Z" fill="var(--fill-0, #161D55)"/>
</g>
</svg>
