<svg preserveAspectRatio="none" width="100%" height="100%" overflow="visible" style="display: block;" viewBox="0 0 62.0606 8.1717" fill="none" xmlns="http://www.w3.org/2000/svg">
<g id="al-hakeem">
<path id="Vector" d="M57.5238 8.17165L54.8408 1.03545H54.7962C54.8519 1.62921 54.8797 2.36213 54.8797 3.2342V8.17165H53.9334V0.0334929H55.4475L57.958 6.7021H58.0025L60.5575 0.0334929H62.0605V8.17165H61.0474V3.16741C61.0474 2.61076 61.0733 1.90382 61.1253 1.04659H61.0808L58.3643 8.17165H57.5238Z" fill="var(--fill-0, #161D55)"/>
<path id="Vector_2" d="M52.1356 8.17165H47.5878V0.0334929H52.1356V0.935258H48.612V3.47356H51.9296V4.36419H48.612V7.26988H52.1356V8.17165Z" fill="var(--fill-0, #161D55)"/>
<path id="Vector_3" d="M45.7898 8.17165H41.242V0.0334929H45.7898V0.935258H42.2662V3.47356H45.5838V4.36419H42.2662V7.26988H45.7898V8.17165Z" fill="var(--fill-0, #161D55)"/>
<path id="Vector_4" d="M40.1343 8.17165H38.9264L36.0374 4.28626L35.208 5.01547V8.17165H34.1837V0.0334929H35.208V4.04691L35.9093 3.27317L38.8095 0.0334929H40.0062L36.7833 3.57932L40.1343 8.17165Z" fill="var(--fill-0, #161D55)"/>
<path id="Vector_5" d="M31.996 8.17168L31.0163 5.65008H27.7878L26.8192 8.17168H25.7839L28.9623 0.000128069H29.8863L33.0592 8.17168H31.996ZM30.7102 4.74275L29.7973 2.27681L29.4076 1.05775C29.2963 1.50307 29.1794 1.90942 29.0569 2.27681L28.1329 4.74275H30.7102Z" fill="var(--fill-0, #161D55)"/>
<path id="Vector_6" d="M24.6651 8.17165H23.6409V4.37533H19.466V8.17165H18.4418V0.0334929H19.466V3.47356H23.6409V0.0334929H24.6651V8.17165Z" fill="var(--fill-0, #161D55)"/>
<path id="Vector_7" d="M16.5993 5.50405C16.6221 5.50405 16.6449 5.52685 16.6449 5.54965V6.19946C16.6449 6.23366 16.6335 6.25646 16.5993 6.25646C15.1515 6.25646 14.4105 6.25646 14.0001 6.19946C13.9659 6.19946 13.9545 6.16526 13.9545 6.14246L13.9773 5.54965C13.9773 5.52685 14.0001 5.50405 14.0229 5.50405H16.5993Z" fill="var(--fill-0, #161D55)"/>
<path id="Vector_8" d="M8.39985 8.17165V0.0334929H9.42408V7.25875H12.981V8.17165H8.39985Z" fill="var(--fill-0, #161D55)"/>
<path id="Vector_9" d="M6.21216 8.17155L5.23247 5.64995H2.00392L1.03536 8.17155H0L3.17845 0H4.10248L7.27536 8.17155H6.21216ZM4.92631 4.74262L4.01341 2.27668L3.62376 1.05763C3.51243 1.50294 3.39554 1.90929 3.27308 2.27668L2.34904 4.74262H4.92631Z" fill="var(--fill-0, #161D55)"/>
</g>
</svg>
